<mxfile host="app.diagrams.net" modified="2023-12-18T09:56:47.515Z" agent="Mozilla/5.0 (Windows NT 10.0; Win64; x64) AppleWebKit/537.36 (KHTML, like Gecko) Chrome/120.0.0.0 Safari/537.36" etag="lVS7L1I913YCTukAPuNg" version="22.1.11" type="device">
  <diagram name="Page-1" id="pQcWPsWnz-nll_E68dfV">
    <mxGraphModel dx="555" dy="1388" grid="0" gridSize="10" guides="1" tooltips="1" connect="1" arrows="1" fold="1" page="0" pageScale="1" pageWidth="827" pageHeight="1169" math="0" shadow="0">
      <root>
        <mxCell id="0" />
        <mxCell id="1" parent="0" />
        <mxCell id="CvDrnOcillGs2mDOZLXo-1" value="User" style="swimlane;childLayout=stackLayout;horizontal=1;startSize=38;horizontalStack=0;rounded=1;fontSize=14;fontStyle=0;strokeWidth=2;resizeParent=0;resizeLast=1;shadow=0;dashed=0;align=center;arcSize=4;whiteSpace=wrap;html=1;" vertex="1" parent="1">
          <mxGeometry x="74" y="-34" width="160" height="107" as="geometry" />
        </mxCell>
        <mxCell id="CvDrnOcillGs2mDOZLXo-2" value="firstName&lt;br&gt;lastName&lt;br&gt;email&lt;br&gt;password" style="align=left;strokeColor=none;fillColor=none;spacingLeft=4;fontSize=12;verticalAlign=top;resizable=0;rotatable=0;part=1;html=1;" vertex="1" parent="CvDrnOcillGs2mDOZLXo-1">
          <mxGeometry y="38" width="160" height="69" as="geometry" />
        </mxCell>
        <mxCell id="CvDrnOcillGs2mDOZLXo-6" value="Role" style="swimlane;childLayout=stackLayout;horizontal=1;startSize=38;horizontalStack=0;rounded=1;fontSize=14;fontStyle=0;strokeWidth=2;resizeParent=0;resizeLast=1;shadow=0;dashed=0;align=center;arcSize=4;whiteSpace=wrap;html=1;" vertex="1" parent="1">
          <mxGeometry x="466" y="-34" width="160" height="107" as="geometry" />
        </mxCell>
        <mxCell id="CvDrnOcillGs2mDOZLXo-7" value="name&lt;br&gt;permissions" style="align=left;strokeColor=none;fillColor=none;spacingLeft=4;fontSize=12;verticalAlign=top;resizable=0;rotatable=0;part=1;html=1;" vertex="1" parent="CvDrnOcillGs2mDOZLXo-6">
          <mxGeometry y="38" width="160" height="69" as="geometry" />
        </mxCell>
        <mxCell id="CvDrnOcillGs2mDOZLXo-8" value="" style="edgeStyle=entityRelationEdgeStyle;fontSize=12;html=1;endArrow=ERmandOne;startArrow=ERmandOne;rounded=0;startSize=8;endSize=8;curved=1;entryX=-0.012;entryY=0.435;entryDx=0;entryDy=0;entryPerimeter=0;exitX=1.014;exitY=0.426;exitDx=0;exitDy=0;exitPerimeter=0;" edge="1" parent="1" source="CvDrnOcillGs2mDOZLXo-2" target="CvDrnOcillGs2mDOZLXo-7">
          <mxGeometry width="100" height="100" relative="1" as="geometry">
            <mxPoint x="292" y="211" as="sourcePoint" />
            <mxPoint x="392" y="111" as="targetPoint" />
            <Array as="points">
              <mxPoint x="317" y="36" />
              <mxPoint x="366" y="21" />
            </Array>
          </mxGeometry>
        </mxCell>
        <mxCell id="CvDrnOcillGs2mDOZLXo-9" value="&lt;p style=&quot;line-height: 0%; font-size: 25px;&quot;&gt;has&lt;/p&gt;" style="edgeLabel;html=1;align=center;verticalAlign=middle;resizable=0;points=[];fontSize=16;" vertex="1" connectable="0" parent="CvDrnOcillGs2mDOZLXo-8">
          <mxGeometry relative="1" as="geometry">
            <mxPoint as="offset" />
          </mxGeometry>
        </mxCell>
      </root>
    </mxGraphModel>
  </diagram>
</mxfile>
